<svg width="96" height="22" viewBox="0 0 96 22" fill="none" xmlns="http://www.w3.org/2000/svg">
<path d="M5.42277 15.54C5.56277 16.968 5.03077 18.368 4.63877 19.768C4.72277 20.328 5.25477 20.524 5.36677 20.636C5.47877 20.748 5.33877 21.028 5.11477 21.028C4.97477 21.028 4.55477 21.028 4.33077 21.028C4.27477 21.028 4.21877 21.028 4.16277 21.028C3.63077 21.028 3.26677 21.028 2.73477 21.028C2.67877 21.028 2.62277 21.028 2.56677 21.028C2.34277 21.028 1.92277 21.028 1.78277 21.028C1.55877 21.028 1.44677 20.748 1.58677 20.636C1.72677 20.496 2.56677 20.216 2.93077 19.152C2.95877 19.236 2.95877 19.32 2.95877 19.404C3.23877 18.564 3.51877 17.724 3.63077 16.828C3.82677 15.316 3.09877 14.112 2.79077 12.656C2.53877 11.452 2.62277 10.724 3.04277 9.604C3.74277 7.812 3.63077 6.916 3.21077 4.984C3.12677 4.536 2.73477 4.116 2.39877 3.864C2.31477 3.808 2.25877 3.78 2.17477 3.696C2.03477 3.584 1.97877 3.332 2.06277 3.22C2.76277 2.52 3.12677 2.184 3.99477 1.652C4.13477 1.54 4.33077 1.652 4.33077 1.848C4.69477 3.808 5.81477 6.3 5.36677 8.344C5.11477 9.464 4.38677 10.22 4.38677 11.424C4.35877 12.88 5.25477 14.14 5.42277 15.54ZM12.61 8.316C14.094 8.344 15.718 9.268 16.642 10.444C17.734 11.816 17.342 13.076 16.894 14.672C16.166 17.276 16.278 20.916 12.666 21C10.062 21.056 8.77401 19.152 8.80201 16.8C8.80201 16.688 8.88601 16.576 8.99801 16.548C9.50202 16.38 10.874 16.044 10.93 16.212C11.322 17.192 10.258 19.936 12.666 19.852C15.158 19.768 14.626 15.792 15.074 14.14C16.362 9.632 11.182 9.52 8.29801 10.22C8.07401 10.248 7.90601 10.108 7.96201 9.884C8.04601 9.632 8.07401 9.52 8.15801 9.268C9.13802 6.384 8.38201 4.788 7.76601 1.932C7.73801 1.764 7.87801 1.596 8.07401 1.596C8.63402 1.596 8.91401 1.596 9.47402 1.596C9.50202 1.596 9.50202 1.596 9.50202 1.596C12.106 1.596 14.71 1.596 17.314 1.596C17.482 1.596 17.65 1.764 17.622 1.932C17.426 3.388 16.754 4.648 16.53 6.104C16.53 6.272 16.362 6.44 16.194 6.44C15.606 6.44 15.354 6.44 14.878 6.44C14.598 6.44 14.71 6.104 14.822 5.964C14.962 5.824 15.578 5.18 15.718 4.536C16.026 3.22 14.01 2.8 13.03 2.8C10.286 2.772 10.202 4.032 10.454 6.412C10.482 7.308 10.286 7.756 10.034 8.624C10.762 8.456 11.602 8.316 12.61 8.316ZM27.9702 6.58C28.4182 8.316 29.6782 10.024 29.6222 11.508C29.5662 12.796 28.5302 14.28 28.0542 15.764C27.7742 16.632 27.7742 17.584 27.4662 18.48C27.0462 19.74 26.2342 21 24.7222 21V21.028V21V21.028V21C23.1822 20.944 22.4262 19.768 21.9782 18.48C21.5862 17.416 21.6142 16.296 21.1942 15.232C20.6902 13.944 19.8502 12.656 19.8222 11.508C19.7382 10.024 20.9982 8.316 21.4742 6.58C21.6702 5.74 21.6142 4.844 21.8382 4.032C22.2582 2.688 23.2382 1.624 24.7222 1.624C26.2062 1.624 27.1862 2.688 27.5782 4.032C27.8302 4.844 27.7742 5.768 27.9702 6.58ZM26.2902 17.864C26.7942 15.764 27.6902 13.132 27.6902 11.312C27.6902 9.492 26.7942 6.86 26.2902 4.76C26.0662 3.864 25.7862 2.884 24.7222 2.772C23.6582 2.884 23.3782 3.864 23.1542 4.76C22.6222 6.888 21.7542 9.464 21.7542 11.312C21.7542 13.16 22.6222 15.736 23.1542 17.864C23.3782 18.76 23.6582 19.74 24.7222 19.852C25.7862 19.74 26.0662 18.76 26.2902 17.864ZM47.7922 6.58C48.2402 8.316 49.5002 10.024 49.4442 11.508C49.3882 12.796 48.3522 14.28 47.8762 15.764C47.5962 16.632 47.5962 17.584 47.2882 18.48C46.8682 19.74 46.0562 21 44.5442 21V21.028V21V21.028V21C43.0042 20.944 42.2482 19.768 41.8002 18.48C41.4082 17.416 41.4362 16.296 41.0162 15.232C40.5122 13.944 39.6722 12.656 39.6442 11.508C39.5602 10.024 40.8202 8.316 41.2962 6.58C41.4922 5.74 41.4362 4.844 41.6602 4.032C42.0802 2.688 43.0602 1.624 44.5442 1.624C46.0282 1.624 47.0082 2.688 47.4002 4.032C47.6522 4.844 47.5962 5.768 47.7922 6.58ZM46.1122 17.864C46.6162 15.764 47.5122 13.132 47.5122 11.312C47.5122 9.492 46.6162 6.86 46.1122 4.76C45.8882 3.864 45.6082 2.884 44.5442 2.772C43.4802 2.884 43.2002 3.864 42.9762 4.76C42.4442 6.888 41.5762 9.464 41.5762 11.312C41.5762 13.16 42.4442 15.736 42.9762 17.864C43.2002 18.76 43.4802 19.74 44.5442 19.852C45.6082 19.74 45.8882 18.76 46.1122 17.864ZM60.3146 6.58C60.7626 8.316 62.0226 10.024 61.9666 11.508C61.9106 12.796 60.8746 14.28 60.3986 15.764C60.1186 16.632 60.1186 17.584 59.8106 18.48C59.3906 19.74 58.5786 21 57.0666 21V21.028V21V21.028V21C55.5266 20.944 54.7706 19.768 54.3226 18.48C53.9306 17.416 53.9586 16.296 53.5386 15.232C53.0346 13.944 52.1946 12.656 52.1666 11.508C52.0826 10.024 53.3426 8.316 53.8186 6.58C54.0146 5.74 53.9586 4.844 54.1826 4.032C54.6026 2.688 55.5826 1.624 57.0666 1.624C58.5506 1.624 59.5306 2.688 59.9226 4.032C60.1746 4.844 60.1186 5.768 60.3146 6.58ZM58.6346 17.864C59.1386 15.764 60.0346 13.132 60.0346 11.312C60.0346 9.492 59.1386 6.86 58.6346 4.76C58.4106 3.864 58.1306 2.884 57.0666 2.772C56.0026 2.884 55.7226 3.864 55.4986 4.76C54.9666 6.888 54.0986 9.464 54.0986 11.312C54.0986 13.16 54.9666 15.736 55.4986 17.864C55.7226 18.76 56.0026 19.74 57.0666 19.852C58.1306 19.74 58.4106 18.76 58.6346 17.864ZM72.8369 6.58C73.2849 8.316 74.5449 10.024 74.4889 11.508C74.4329 12.796 73.3969 14.28 72.9209 15.764C72.6409 16.632 72.6409 17.584 72.3329 18.48C71.9129 19.74 71.1009 21 69.5889 21V21.028V21V21.028V21C68.0489 20.944 67.2929 19.768 66.8449 18.48C66.4529 17.416 66.4809 16.296 66.0609 15.232C65.5569 13.944 64.7169 12.656 64.6889 11.508C64.6049 10.024 65.8649 8.316 66.3409 6.58C66.5369 5.74 66.4809 4.844 66.7049 4.032C67.1249 2.688 68.1049 1.624 69.5889 1.624C71.0729 1.624 72.0529 2.688 72.4449 4.032C72.6969 4.844 72.6409 5.768 72.8369 6.58ZM71.1569 17.864C71.6609 15.764 72.5569 13.132 72.5569 11.312C72.5569 9.492 71.6609 6.86 71.1569 4.76C70.9329 3.864 70.6529 2.884 69.5889 2.772C68.5249 2.884 68.2449 3.864 68.0209 4.76C67.4889 6.888 66.6209 9.464 66.6209 11.312C66.6209 13.16 67.4889 15.736 68.0209 17.864C68.2449 18.76 68.5249 19.74 69.5889 19.852C70.6529 19.74 70.9329 18.76 71.1569 17.864Z" fill="white"/>
<path d="M83.9087 9.42V7.74H85.6487V0.799999H89.7487C91.2153 0.799999 92.3753 1.19333 93.2287 1.98C94.0953 2.75333 94.5287 3.78667 94.5287 5.08C94.5287 6.37333 94.0953 7.42 93.2287 8.22C92.3753 9.02 91.2153 9.42 89.7487 9.42H87.3687V11.02H91.5087V12.12H87.3687V15H85.6487V12.12H83.9087V11.02H85.6487V9.42H83.9087ZM87.3687 7.74H89.7087C90.6687 7.74 91.402 7.50667 91.9087 7.04C92.4287 6.56 92.6887 5.90667 92.6887 5.08C92.6887 4.26667 92.4287 3.63333 91.9087 3.18C91.402 2.71333 90.6687 2.48 89.7087 2.48H87.3687V7.74Z" fill="white"/>
</svg>
