<svg width="103" height="24" viewBox="0 0 103 24" fill="none" xmlns="http://www.w3.org/2000/svg">
<path fill-rule="evenodd" clip-rule="evenodd" d="M5.11344 3.94L4.91344 6.39C4.87344 6.86 5.24344 7.25 5.71344 7.25H21.0234C21.4434 7.25 21.7934 6.93 21.8234 6.51C21.9534 4.74 20.6034 3.3 18.8334 3.3H6.54344C6.44344 2.86 6.24344 2.44 5.93344 2.09C5.43344 1.56 4.73344 1.25 4.01344 1.25H2.27344C1.86344 1.25 1.52344 1.59 1.52344 2C1.52344 2.41 1.86344 2.75 2.27344 2.75H4.01344C4.32344 2.75 4.61344 2.88 4.82344 3.1C5.03344 3.33 5.13344 3.63 5.11344 3.94ZM10.2734 20.75C10.2734 21.7165 9.48994 22.5 8.52344 22.5C7.55694 22.5 6.77344 21.7165 6.77344 20.75C6.77344 19.7835 7.55694 19 8.52344 19C9.48994 19 10.2734 19.7835 10.2734 20.75ZM18.2734 20.75C18.2734 21.7165 17.4899 22.5 16.5234 22.5C15.5569 22.5 14.7734 21.7165 14.7734 20.75C14.7734 19.7835 15.5569 19 16.5234 19C17.4899 19 18.2734 19.7835 18.2734 20.75ZM5.44349 8.75H20.7835C21.2535 8.75 21.6135 9.14 21.5735 9.6L21.2435 14.27C21.1335 15.77 19.8135 17 18.3135 17H7.19349C5.48349 17 4.14349 15.54 4.28349 13.83L4.64349 9.48C4.68349 9.07 5.02349 8.75 5.44349 8.75Z" fill="#D9FF5A"/>
<path d="M46.2334 19L39.3334 12.36V19H37.0134V4.8H39.3334V10.92L45.0334 4.8H47.9934L41.6734 11.6L49.3934 19H46.2334ZM58.5023 9L53.3023 20.54C52.8623 21.54 52.349 22.26 51.7623 22.7C51.189 23.1533 50.469 23.38 49.6023 23.38C49.069 23.38 48.6623 23.3467 48.3823 23.28V21.38C48.7823 21.4067 49.109 21.42 49.3623 21.42C50.0957 21.42 50.6957 20.9333 51.1623 19.96L51.8223 18.5L47.5023 9H49.9223L53.0623 15.94L56.0623 9H58.5023ZM60.0347 19V9H69.0547V19H66.8547V10.96H62.2347V19H60.0347ZM73.9673 19H72.0073V9H74.2073V15.66L79.3073 9H81.2673V19H79.0673V12.34L73.9673 19ZM86.0939 19V10.96H83.0939V9H91.4339V10.96H88.2939V19H86.0939ZM93.2769 19V9H95.4769V12.3H97.5769C98.7902 12.3 99.7035 12.64 100.317 13.32C100.944 13.9867 101.257 14.7533 101.257 15.62C101.257 16.5 100.944 17.2867 100.317 17.98C99.7035 18.66 98.7902 19 97.5769 19H93.2769ZM95.4769 14.24V17.06H97.3969C97.9569 17.06 98.3835 16.94 98.6769 16.7C98.9835 16.4467 99.1369 16.0933 99.1369 15.64C99.1369 14.7067 98.5569 14.24 97.3969 14.24H95.4769Z" fill="white"/>
</svg>
