<svg width="93" height="99" viewBox="0 0 93 99" fill="none" xmlns="http://www.w3.org/2000/svg">
<ellipse cx="52.3468" cy="49.3136" rx="40.5" ry="36" transform="rotate(-23 52.3468 49.3136)" fill="#FA8FEF"/>
<path d="M45.6581 57.7199C46.4475 60.2963 48.4375 62.0154 49.99 64.1375C50.0994 64.3952 50.0091 64.6943 49.7514 64.8037C49.6409 64.8506 49.5673 64.8818 49.4568 64.9287C48.9045 65.1631 48.6099 65.2882 48.0576 65.5226C48.0576 65.5226 47.984 65.5539 47.8735 65.6008C47.6158 65.7102 47.1371 65.9134 46.8794 66.0228C46.8426 66.0384 46.8426 66.0384 46.8057 66.054C46.7321 66.0853 46.6797 66.0641 46.6272 66.0429C46.4275 66.0842 46.2545 65.9838 46.2187 65.6948C45.7986 62.6575 43.6902 60.2499 43.2757 57.1234C43.2701 57.2127 43.3013 57.2863 43.3114 57.4124C42.3856 53.2861 37.9412 53.5649 35 55.0306C34.7055 55.1556 34.3383 55.0073 34.2289 54.7495C32.2644 51.7594 31.1436 49.3237 30.1945 45.8592C29.6006 44.46 28.5974 44.4513 28.3352 44.3453C28.1097 44.2237 28.1164 43.8298 28.4109 43.7048C28.7055 43.5798 29.6628 43.1734 29.6628 43.1734C30.3256 42.8921 30.6201 42.767 31.2461 42.5013C31.5406 42.3763 31.871 42.5403 31.9067 42.8293C32.7756 46.719 33.4111 49.7518 35.7372 52.9795C37.9554 52.4724 40.5519 51.9352 42.7225 53.0562C41.5951 51.0144 39.594 49.4738 38.6139 47.3695C37.6126 45.3176 37.6478 42.7389 37.1776 40.505C37.1206 40.2685 37.2109 39.9694 37.4687 39.86C38.0578 39.6099 38.3155 39.5005 38.9047 39.2505C39.1624 39.1411 39.4403 39.2838 39.5341 39.5048C39.982 42.0957 39.852 44.7581 41.1569 47.1157C42.1593 48.8629 43.9203 49.9405 44.733 51.8551C45.5301 53.733 45.0976 55.7851 45.6581 57.7199Z" fill="white"/>
<path d="M55.8401 63.4714L51.6788 53.668L53.3081 52.9764L56.8129 61.2334L59.9611 59.8971L56.4562 51.6401L58.0717 50.9544L61.5766 59.2113L64.7247 57.875L61.2198 49.6181L62.8491 48.9265L67.0104 58.7299L55.8401 63.4714ZM71.3239 56.8989L67.819 48.642L64.9746 49.8494L64.3182 48.3029L71.6362 45.1966L72.2927 46.7431L69.4345 47.9563L72.9394 56.2132L71.3239 56.8989Z" fill="white"/>
</svg>
