<svg width="190" height="29" viewBox="0 0 190 29" fill="none" xmlns="http://www.w3.org/2000/svg">
<path d="M13.0334 8.1666C13.6734 10.6466 15.4734 13.0866 15.3934 15.2066C15.3134 17.0466 13.8334 19.1666 13.1534 21.2866C12.7534 22.5266 12.7534 23.8866 12.3134 25.1666C11.7134 26.9666 10.5534 28.7666 8.39344 28.7666V28.8066V28.7666V28.8066V28.7666C6.19344 28.6866 5.11344 27.0066 4.47344 25.1666C3.91344 23.6466 3.95344 22.0466 3.35344 20.5266C2.63344 18.6866 1.43344 16.8466 1.39344 15.2066C1.27344 13.0866 3.07344 10.6466 3.75344 8.1666C4.03344 6.9666 3.95344 5.6866 4.27344 4.5266C4.87344 2.6066 6.27344 1.0866 8.39344 1.0866C10.5134 1.0866 11.9134 2.6066 12.4734 4.5266C12.8334 5.6866 12.7534 7.0066 13.0334 8.1666ZM10.6334 24.2866C11.3534 21.2866 12.6334 17.5266 12.6334 14.9266C12.6334 12.3266 11.3534 8.5666 10.6334 5.5666C10.3134 4.2866 9.91344 2.8866 8.39344 2.7266C6.87344 2.8866 6.47344 4.2866 6.15344 5.5666C5.39344 8.6066 4.15344 12.2866 4.15344 14.9266C4.15344 17.5666 5.39344 21.2466 6.15344 24.2866C6.47344 25.5666 6.87344 26.9666 8.39344 27.1266C9.91344 26.9666 10.3134 25.5666 10.6334 24.2866ZM30.3581 22.3666C30.6781 24.4066 31.6381 26.2466 31.9181 28.2866C31.9581 28.5666 31.7181 28.7666 31.4781 28.7666C27.7581 28.7666 24.0381 28.7666 20.2781 28.7666C19.4381 28.7666 19.0381 28.7666 18.1981 28.7666C17.9181 28.7666 17.7181 28.5666 17.7581 28.2866C18.0781 26.1266 19.1581 24.1666 19.3181 21.9266C19.3581 20.7666 19.1981 19.5666 19.3981 18.4466C19.7181 16.5666 20.9181 15.6066 22.0781 15.1666C22.1181 15.1666 22.1181 15.1666 22.1581 15.1666C22.5581 15.0066 24.6781 14.2466 25.4781 13.7266C27.1981 12.4866 29.4381 10.4866 29.5181 8.1666C29.4781 5.4466 27.9181 2.8066 24.9581 2.7266C21.3981 2.6066 23.1981 6.6066 22.5981 7.8866C22.4781 8.1666 20.3581 7.6466 19.5981 7.4466C19.4381 7.4066 19.3181 7.2466 19.3181 7.0866C19.3181 3.7266 21.1981 1.0466 24.8381 1.0466C30.0781 1.0866 33.9181 7.4866 30.1981 11.6466C29.0381 12.9666 27.6381 14.2866 25.9581 14.9266C25.9981 14.9266 25.9981 14.9266 25.9981 14.9266C25.9981 14.9266 23.5581 15.7666 22.8781 16.3666C21.3581 17.8466 21.5581 20.0066 21.6381 21.8866C21.6381 21.8866 21.6381 21.8866 21.6381 21.9266C21.3581 25.2866 21.4381 27.1266 25.3581 27.0866C26.8781 27.0866 29.3181 26.4866 28.9181 24.6066C28.7181 23.6866 27.8381 22.7666 27.6381 22.5666C27.4781 22.3666 27.3181 21.8866 27.7181 21.8866C28.4781 21.8866 28.9181 21.8866 29.8781 21.8866C30.1181 21.8866 30.3581 22.1266 30.3581 22.3666Z" fill="white"/>
<path d="M171.033 8.1666C171.673 10.6466 173.473 13.0866 173.393 15.2066C173.313 17.0466 171.833 19.1666 171.153 21.2866C170.753 22.5266 170.753 23.8866 170.313 25.1666C169.713 26.9666 168.553 28.7666 166.393 28.7666V28.8066V28.7666V28.8066V28.7666C164.193 28.6866 163.113 27.0066 162.473 25.1666C161.913 23.6466 161.953 22.0466 161.353 20.5266C160.633 18.6866 159.433 16.8466 159.393 15.2066C159.273 13.0866 161.073 10.6466 161.753 8.1666C162.033 6.9666 161.953 5.6866 162.273 4.5266C162.873 2.6066 164.273 1.0866 166.393 1.0866C168.513 1.0866 169.913 2.6066 170.473 4.5266C170.833 5.6866 170.753 7.0066 171.033 8.1666ZM168.633 24.2866C169.353 21.2866 170.633 17.5266 170.633 14.9266C170.633 12.3266 169.353 8.5666 168.633 5.5666C168.313 4.2866 167.913 2.8866 166.393 2.7266C164.873 2.8866 164.473 4.2866 164.153 5.5666C163.393 8.6066 162.153 12.2866 162.153 14.9266C162.153 17.5666 163.393 21.2466 164.153 24.2866C164.473 25.5666 164.873 26.9666 166.393 27.1266C167.913 26.9666 168.313 25.5666 168.633 24.2866ZM186.238 20.6866C185.958 23.3666 187.118 25.7266 187.718 28.2866C187.718 28.5666 187.518 28.8066 187.238 28.8066C187.118 28.8066 187.038 28.8066 186.918 28.8066C186.318 28.8066 185.998 28.8066 185.398 28.8066C185.398 28.8066 185.318 28.8066 185.198 28.8066C184.918 28.8066 184.398 28.8066 184.118 28.8066C184.078 28.8066 184.078 28.8066 184.038 28.8066C183.958 28.8066 183.918 28.7666 183.878 28.7266C183.678 28.6866 183.558 28.5266 183.638 28.2466C184.438 25.2866 183.438 22.2466 184.278 19.2066C184.238 19.2866 184.238 19.3666 184.198 19.4866C184.958 15.3266 180.758 13.8466 177.478 14.0466C177.158 14.0466 176.878 13.7666 176.878 13.4866C176.238 9.9666 176.158 7.2866 176.638 3.7266C176.638 2.2066 175.718 1.8066 175.518 1.6066C175.358 1.4066 175.518 1.0466 175.838 1.0466C176.158 1.0466 177.198 1.0466 177.198 1.0466C177.918 1.0466 178.238 1.0466 178.918 1.0466C179.238 1.0466 179.478 1.3266 179.398 1.6066C178.678 5.5266 178.078 8.5666 178.958 12.4466C181.198 12.8466 183.798 13.3666 185.358 15.2466C185.118 12.9266 183.878 10.7266 183.798 8.4066C183.678 6.1266 184.718 3.7666 185.158 1.5266C185.198 1.2866 185.398 1.0466 185.678 1.0466C186.318 1.0466 186.598 1.0466 187.238 1.0466C187.518 1.0466 187.718 1.2866 187.718 1.5266C187.118 4.0866 185.958 6.4866 186.238 9.1666C186.478 11.1666 187.678 12.8466 187.678 14.9266C187.678 16.9666 186.478 18.6866 186.238 20.6866Z" fill="white"/>
<line x1="60.2734" y1="13.7666" x2="123.273" y2="13.7666" stroke="#CBB6FF" stroke-width="2"/>
</svg>
