<svg width="127" height="30" viewBox="0 0 127 30" fill="none" xmlns="http://www.w3.org/2000/svg">
<path d="M6.64 21.2C6.84 23.24 6.08 25.24 5.52 27.24C5.64 28.04 6.4 28.32 6.56 28.48C6.72 28.64 6.52 29.04 6.2 29.04C6 29.04 5.4 29.04 5.08 29.04C5 29.04 4.92 29.04 4.84 29.04C4.08 29.04 3.56 29.04 2.8 29.04C2.72 29.04 2.64 29.04 2.56 29.04C2.24 29.04 1.64 29.04 1.44 29.04C1.12 29.04 0.96 28.64 1.16 28.48C1.36 28.28 2.56 27.88 3.08 26.36C3.12 26.48 3.12 26.6 3.12 26.72C3.52 25.52 3.92 24.32 4.08 23.04C4.36 20.88 3.32 19.16 2.88 17.08C2.52 15.36 2.64 14.32 3.24 12.72C4.24 10.16 4.08 8.88 3.48 6.12C3.36 5.48 2.8 4.88 2.32 4.52C2.2 4.44 2.12 4.4 2 4.28C1.8 4.12 1.72 3.76 1.84 3.6C2.84 2.6 3.36 2.12 4.6 1.36C4.8 1.2 5.08 1.36 5.08 1.64C5.6 4.44 7.2 8 6.56 10.92C6.2 12.52 5.16 13.6 5.16 15.32C5.12 17.4 6.4 19.2 6.64 21.2ZM22.8972 22.6C23.2172 24.64 24.1772 26.48 24.4572 28.52C24.4972 28.8 24.2572 29 24.0172 29C20.2972 29 16.5772 29 12.8172 29C11.9772 29 11.5772 29 10.7372 29C10.4572 29 10.2572 28.8 10.2972 28.52C10.6172 26.36 11.6972 24.4 11.8572 22.16C11.8972 21 11.7372 19.8 11.9372 18.68C12.2572 16.8 13.4572 15.84 14.6172 15.4C14.6572 15.4 14.6572 15.4 14.6972 15.4C15.0972 15.24 17.2172 14.48 18.0172 13.96C19.7372 12.72 21.9772 10.72 22.0572 8.4C22.0172 5.68 20.4572 3.04 17.4972 2.96C13.9372 2.84 15.7372 6.84 15.1372 8.12C15.0172 8.4 12.8972 7.88 12.1372 7.68C11.9772 7.64 11.8572 7.48 11.8572 7.32C11.8572 3.96 13.7372 1.28 17.3772 1.28C22.6172 1.32 26.4572 7.72 22.7372 11.88C21.5772 13.2 20.1772 14.52 18.4972 15.16C18.5372 15.16 18.5372 15.16 18.5372 15.16C18.5372 15.16 16.0972 16 15.4172 16.6C13.8972 18.08 14.0972 20.24 14.1772 22.12C14.1772 22.12 14.1772 22.12 14.1772 22.16C13.8972 25.52 13.9772 27.36 17.8972 27.32C19.4172 27.32 21.8572 26.72 21.4572 24.84C21.2572 23.92 20.3772 23 20.1772 22.8C20.0172 22.6 19.8572 22.12 20.2572 22.12C21.0172 22.12 21.4572 22.12 22.4172 22.12C22.6572 22.12 22.8972 22.36 22.8972 22.6ZM38.6163 8.4C39.2563 10.88 41.0563 13.32 40.9763 15.44C40.8963 17.28 39.4163 19.4 38.7363 21.52C38.3363 22.76 38.3363 24.12 37.8963 25.4C37.2963 27.2 36.1363 29 33.9763 29V29.04V29V29.04V29C31.7763 28.92 30.6963 27.24 30.0563 25.4C29.4963 23.88 29.5363 22.28 28.9363 20.76C28.2163 18.92 27.0163 17.08 26.9763 15.44C26.8563 13.32 28.6563 10.88 29.3363 8.4C29.6163 7.2 29.5363 5.92 29.8563 4.76C30.4563 2.84 31.8563 1.32 33.9763 1.32C36.0963 1.32 37.4963 2.84 38.0563 4.76C38.4163 5.92 38.3363 7.24 38.6163 8.4ZM36.2163 24.52C36.9363 21.52 38.2163 17.76 38.2163 15.16C38.2163 12.56 36.9363 8.8 36.2163 5.8C35.8963 4.52 35.4963 3.12 33.9763 2.96C32.4563 3.12 32.0563 4.52 31.7363 5.8C30.9763 8.84 29.7363 12.52 29.7363 15.16C29.7363 17.8 30.9763 21.48 31.7363 24.52C32.0563 25.8 32.4563 27.2 33.9763 27.36C35.4963 27.2 35.8963 25.8 36.2163 24.52ZM66.9334 8.4C67.5734 10.88 69.3734 13.32 69.2934 15.44C69.2134 17.28 67.7334 19.4 67.0534 21.52C66.6534 22.76 66.6534 24.12 66.2134 25.4C65.6134 27.2 64.4534 29 62.2934 29V29.04V29V29.04V29C60.0934 28.92 59.0134 27.24 58.3734 25.4C57.8134 23.88 57.8534 22.28 57.2534 20.76C56.5334 18.92 55.3334 17.08 55.2934 15.44C55.1734 13.32 56.9734 10.88 57.6534 8.4C57.9334 7.2 57.8534 5.92 58.1734 4.76C58.7734 2.84 60.1734 1.32 62.2934 1.32C64.4134 1.32 65.8134 2.84 66.3734 4.76C66.7334 5.92 66.6534 7.24 66.9334 8.4ZM64.5334 24.52C65.2534 21.52 66.5334 17.76 66.5334 15.16C66.5334 12.56 65.2534 8.8 64.5334 5.8C64.2134 4.52 63.8134 3.12 62.2934 2.96C60.7734 3.12 60.3734 4.52 60.0534 5.8C59.2934 8.84 58.0534 12.52 58.0534 15.16C58.0534 17.8 59.2934 21.48 60.0534 24.52C60.3734 25.8 60.7734 27.2 62.2934 27.36C63.8134 27.2 64.2134 25.8 64.5334 24.52ZM84.8225 8.4C85.4625 10.88 87.2625 13.32 87.1825 15.44C87.1025 17.28 85.6225 19.4 84.9425 21.52C84.5425 22.76 84.5425 24.12 84.1025 25.4C83.5025 27.2 82.3425 29 80.1825 29V29.04V29V29.04V29C77.9825 28.92 76.9025 27.24 76.2625 25.4C75.7025 23.88 75.7425 22.28 75.1425 20.76C74.4225 18.92 73.2225 17.08 73.1825 15.44C73.0625 13.32 74.8625 10.88 75.5425 8.4C75.8225 7.2 75.7425 5.92 76.0625 4.76C76.6625 2.84 78.0625 1.32 80.1825 1.32C82.3025 1.32 83.7025 2.84 84.2625 4.76C84.6225 5.92 84.5425 7.24 84.8225 8.4ZM82.4225 24.52C83.1425 21.52 84.4225 17.76 84.4225 15.16C84.4225 12.56 83.1425 8.8 82.4225 5.8C82.1025 4.52 81.7025 3.12 80.1825 2.96C78.6625 3.12 78.2625 4.52 77.9425 5.8C77.1825 8.84 75.9425 12.52 75.9425 15.16C75.9425 17.8 77.1825 21.48 77.9425 24.52C78.2625 25.8 78.6625 27.2 80.1825 27.36C81.7025 27.2 82.1025 25.8 82.4225 24.52ZM102.712 8.4C103.352 10.88 105.152 13.32 105.072 15.44C104.992 17.28 103.512 19.4 102.832 21.52C102.432 22.76 102.432 24.12 101.992 25.4C101.392 27.2 100.232 29 98.0716 29V29.04V29V29.04V29C95.8716 28.92 94.7916 27.24 94.1516 25.4C93.5916 23.88 93.6316 22.28 93.0316 20.76C92.3116 18.92 91.1116 17.08 91.0716 15.44C90.9516 13.32 92.7516 10.88 93.4316 8.4C93.7116 7.2 93.6316 5.92 93.9516 4.76C94.5516 2.84 95.9516 1.32 98.0716 1.32C100.192 1.32 101.592 2.84 102.152 4.76C102.512 5.92 102.432 7.24 102.712 8.4ZM100.312 24.52C101.032 21.52 102.312 17.76 102.312 15.16C102.312 12.56 101.032 8.8 100.312 5.8C99.9916 4.52 99.5916 3.12 98.0716 2.96C96.5516 3.12 96.1516 4.52 95.8316 5.8C95.0716 8.84 93.8316 12.52 93.8316 15.16C93.8316 17.8 95.0716 21.48 95.8316 24.52C96.1516 25.8 96.5516 27.2 98.0716 27.36C99.5916 27.2 99.9916 25.8 100.312 24.52Z" fill="white"/>
<path d="M115.02 9.42V7.74H116.76V0.799999H120.86C122.327 0.799999 123.487 1.19333 124.34 1.98C125.207 2.75333 125.64 3.78667 125.64 5.08C125.64 6.37333 125.207 7.42 124.34 8.22C123.487 9.02 122.327 9.42 120.86 9.42H118.48V11.02H122.62V12.12H118.48V15H116.76V12.12H115.02V11.02H116.76V9.42H115.02ZM118.48 7.74H120.82C121.78 7.74 122.513 7.50667 123.02 7.04C123.54 6.56 123.8 5.90667 123.8 5.08C123.8 4.26667 123.54 3.63333 123.02 3.18C122.513 2.71333 121.78 2.48 120.82 2.48H118.48V7.74Z" fill="white"/>
</svg>
