<svg width="127" height="30" viewBox="0 0 127 30" fill="none" xmlns="http://www.w3.org/2000/svg">
<path d="M6.64 21.2C6.84 23.24 6.08 25.24 5.52 27.24C5.64 28.04 6.4 28.32 6.56 28.48C6.72 28.64 6.52 29.04 6.2 29.04C6 29.04 5.4 29.04 5.08 29.04C5 29.04 4.92 29.04 4.84 29.04C4.08 29.04 3.56 29.04 2.8 29.04C2.72 29.04 2.64 29.04 2.56 29.04C2.24 29.04 1.64 29.04 1.44 29.04C1.12 29.04 0.96 28.64 1.16 28.48C1.36 28.28 2.56 27.88 3.08 26.36C3.12 26.48 3.12 26.6 3.12 26.72C3.52 25.52 3.92 24.32 4.08 23.04C4.36 20.88 3.32 19.16 2.88 17.08C2.52 15.36 2.64 14.32 3.24 12.72C4.24 10.16 4.08 8.88 3.48 6.12C3.36 5.48 2.8 4.88 2.32 4.52C2.2 4.44 2.12 4.4 2 4.28C1.8 4.12 1.72 3.76 1.84 3.6C2.84 2.6 3.36 2.12 4.6 1.36C4.8 1.2 5.08 1.36 5.08 1.64C5.6 4.44 7.2 8 6.56 10.92C6.2 12.52 5.16 13.6 5.16 15.32C5.12 17.4 6.4 19.2 6.64 21.2ZM16.9075 10.88C19.0275 10.92 21.3475 12.24 22.6675 13.92C24.2275 15.88 23.6675 17.68 23.0275 19.96C21.9875 23.68 22.1475 28.88 16.9875 29C13.2675 29.08 11.4275 26.36 11.4675 23C11.4675 22.84 11.5875 22.68 11.7475 22.64C12.4675 22.4 14.4275 21.92 14.5075 22.16C15.0675 23.56 13.5475 27.48 16.9875 27.36C20.5475 27.24 19.7875 21.56 20.4275 19.2C22.2675 12.76 14.8675 12.6 10.7475 13.6C10.4275 13.64 10.1875 13.44 10.2675 13.12C10.3875 12.76 10.4275 12.6 10.5475 12.24C11.9475 8.12 10.8675 5.84 9.9875 1.76C9.9475 1.52 10.1475 1.28 10.4275 1.28C11.2275 1.28 11.6275 1.28 12.4275 1.28C12.4675 1.28 12.4675 1.28 12.4675 1.28C16.1875 1.28 19.9075 1.28 23.6275 1.28C23.8675 1.28 24.1075 1.52 24.0675 1.76C23.7875 3.84 22.8275 5.64 22.5075 7.72C22.5075 7.96 22.2675 8.2 22.0275 8.2C21.1875 8.2 20.8275 8.2 20.1475 8.2C19.7475 8.2 19.9075 7.72 20.0675 7.52C20.2675 7.32 21.1475 6.4 21.3475 5.48C21.7875 3.6 18.9075 3 17.5075 3C13.5875 2.96 13.4675 4.76 13.8275 8.16C13.8675 9.44 13.5875 10.08 13.2275 11.32C14.2675 11.08 15.4675 10.88 16.9075 10.88ZM38.8506 8.4C39.4906 10.88 41.2906 13.32 41.2106 15.44C41.1306 17.28 39.6506 19.4 38.9706 21.52C38.5706 22.76 38.5706 24.12 38.1306 25.4C37.5306 27.2 36.3706 29 34.2106 29V29.04V29V29.04V29C32.0106 28.92 30.9306 27.24 30.2906 25.4C29.7306 23.88 29.7706 22.28 29.1706 20.76C28.4506 18.92 27.2506 17.08 27.2106 15.44C27.0906 13.32 28.8906 10.88 29.5706 8.4C29.8506 7.2 29.7706 5.92 30.0906 4.76C30.6906 2.84 32.0906 1.32 34.2106 1.32C36.3306 1.32 37.7306 2.84 38.2906 4.76C38.6506 5.92 38.5706 7.24 38.8506 8.4ZM36.4506 24.52C37.1706 21.52 38.4506 17.76 38.4506 15.16C38.4506 12.56 37.1706 8.8 36.4506 5.8C36.1306 4.52 35.7306 3.12 34.2106 2.96C32.6906 3.12 32.2906 4.52 31.9706 5.8C31.2106 8.84 29.9706 12.52 29.9706 15.16C29.9706 17.8 31.2106 21.48 31.9706 24.52C32.2906 25.8 32.6906 27.2 34.2106 27.36C35.7306 27.2 36.1306 25.8 36.4506 24.52ZM67.1678 8.4C67.8078 10.88 69.6078 13.32 69.5278 15.44C69.4478 17.28 67.9678 19.4 67.2878 21.52C66.8878 22.76 66.8878 24.12 66.4478 25.4C65.8478 27.2 64.6878 29 62.5278 29V29.04V29V29.04V29C60.3278 28.92 59.2478 27.24 58.6078 25.4C58.0478 23.88 58.0878 22.28 57.4878 20.76C56.7678 18.92 55.5678 17.08 55.5278 15.44C55.4078 13.32 57.2078 10.88 57.8878 8.4C58.1678 7.2 58.0878 5.92 58.4078 4.76C59.0078 2.84 60.4078 1.32 62.5278 1.32C64.6478 1.32 66.0478 2.84 66.6078 4.76C66.9678 5.92 66.8878 7.24 67.1678 8.4ZM64.7678 24.52C65.4878 21.52 66.7678 17.76 66.7678 15.16C66.7678 12.56 65.4878 8.8 64.7678 5.8C64.4478 4.52 64.0478 3.12 62.5278 2.96C61.0078 3.12 60.6078 4.52 60.2878 5.8C59.5278 8.84 58.2878 12.52 58.2878 15.16C58.2878 17.8 59.5278 21.48 60.2878 24.52C60.6078 25.8 61.0078 27.2 62.5278 27.36C64.0478 27.2 64.4478 25.8 64.7678 24.52ZM85.0569 8.4C85.6969 10.88 87.4969 13.32 87.4169 15.44C87.3369 17.28 85.8569 19.4 85.1769 21.52C84.7769 22.76 84.7769 24.12 84.3369 25.4C83.7369 27.2 82.5769 29 80.4169 29V29.04V29V29.04V29C78.2169 28.92 77.1369 27.24 76.4969 25.4C75.9369 23.88 75.9769 22.28 75.3769 20.76C74.6569 18.92 73.4569 17.08 73.4169 15.44C73.2969 13.32 75.0969 10.88 75.7769 8.4C76.0569 7.2 75.9769 5.92 76.2969 4.76C76.8969 2.84 78.2969 1.32 80.4169 1.32C82.5369 1.32 83.9369 2.84 84.4969 4.76C84.8569 5.92 84.7769 7.24 85.0569 8.4ZM82.6569 24.52C83.3769 21.52 84.6569 17.76 84.6569 15.16C84.6569 12.56 83.3769 8.8 82.6569 5.8C82.3369 4.52 81.9369 3.12 80.4169 2.96C78.8969 3.12 78.4969 4.52 78.1769 5.8C77.4169 8.84 76.1769 12.52 76.1769 15.16C76.1769 17.8 77.4169 21.48 78.1769 24.52C78.4969 25.8 78.8969 27.2 80.4169 27.36C81.9369 27.2 82.3369 25.8 82.6569 24.52ZM102.946 8.4C103.586 10.88 105.386 13.32 105.306 15.44C105.226 17.28 103.746 19.4 103.066 21.52C102.666 22.76 102.666 24.12 102.226 25.4C101.626 27.2 100.466 29 98.3059 29V29.04V29V29.04V29C96.1059 28.92 95.0259 27.24 94.3859 25.4C93.8259 23.88 93.8659 22.28 93.2659 20.76C92.5459 18.92 91.3459 17.08 91.3059 15.44C91.1859 13.32 92.9859 10.88 93.6659 8.4C93.9459 7.2 93.8659 5.92 94.1859 4.76C94.7859 2.84 96.1859 1.32 98.3059 1.32C100.426 1.32 101.826 2.84 102.386 4.76C102.746 5.92 102.666 7.24 102.946 8.4ZM100.546 24.52C101.266 21.52 102.546 17.76 102.546 15.16C102.546 12.56 101.266 8.8 100.546 5.8C100.226 4.52 99.8259 3.12 98.3059 2.96C96.7859 3.12 96.3859 4.52 96.0659 5.8C95.3059 8.84 94.0659 12.52 94.0659 15.16C94.0659 17.8 95.3059 21.48 96.0659 24.52C96.3859 25.8 96.7859 27.2 98.3059 27.36C99.8259 27.2 100.226 25.8 100.546 24.52Z" fill="#D9FF5A"/>
<path d="M115.02 9.42V7.74H116.76V0.799999H120.86C122.327 0.799999 123.487 1.19333 124.34 1.98C125.207 2.75333 125.64 3.78667 125.64 5.08C125.64 6.37333 125.207 7.42 124.34 8.22C123.487 9.02 122.327 9.42 120.86 9.42H118.48V11.02H122.62V12.12H118.48V15H116.76V12.12H115.02V11.02H116.76V9.42H115.02ZM118.48 7.74H120.82C121.78 7.74 122.513 7.50667 123.02 7.04C123.54 6.56 123.8 5.90667 123.8 5.08C123.8 4.26667 123.54 3.63333 123.02 3.18C122.513 2.71333 121.78 2.48 120.82 2.48H118.48V7.74Z" fill="#D9FF5A"/>
</svg>
