<svg width="136" height="30" viewBox="0 0 136 30" fill="none" xmlns="http://www.w3.org/2000/svg">
<path d="M13.68 22.6C14 24.64 14.96 26.48 15.24 28.52C15.28 28.8 15.04 29 14.8 29C11.08 29 7.36 29 3.6 29C2.76 29 2.36 29 1.52 29C1.24 29 1.04 28.8 1.08 28.52C1.4 26.36 2.48 24.4 2.64 22.16C2.68 21 2.52 19.8 2.72 18.68C3.04 16.8 4.24 15.84 5.4 15.4C5.44 15.4 5.44 15.4 5.48 15.4C5.88 15.24 8 14.48 8.8 13.96C10.52 12.72 12.76 10.72 12.84 8.4C12.8 5.68 11.24 3.04 8.28 2.96C4.72 2.84 6.52 6.84 5.92 8.12C5.8 8.4 3.68 7.88 2.92 7.68C2.76 7.64 2.64 7.48 2.64 7.32C2.64 3.96 4.52 1.28 8.16 1.28C13.4 1.32 17.24 7.72 13.52 11.88C12.36 13.2 10.96 14.52 9.28 15.16C9.32 15.16 9.32 15.16 9.32 15.16C9.32 15.16 6.88 16 6.2 16.6C4.68 18.08 4.88 20.24 4.96 22.12C4.96 22.12 4.96 22.12 4.96 22.16C4.68 25.52 4.76 27.36 8.68 27.32C10.2 27.32 12.64 26.72 12.24 24.84C12.04 23.92 11.16 23 10.96 22.8C10.8 22.6 10.64 22.12 11.04 22.12C11.8 22.12 12.24 22.12 13.2 22.12C13.44 22.12 13.68 22.36 13.68 22.6ZM28.2966 15.16C29.9766 15.48 32.2166 16.52 31.9366 18.44C31.7366 19.84 31.0566 21.24 31.1366 22.8C31.1766 23.68 31.7366 24.6 31.6966 25.48C31.6966 28.04 29.6166 29 27.2166 29C23.8566 29.04 19.6966 26.16 18.6566 23C18.6166 22.84 18.6966 22.68 18.8166 22.64C19.5366 22.44 21.6166 21.88 21.7766 22.2C22.6966 23.84 23.8166 27.36 26.8966 27.36C30.4966 27.4 28.5766 24 28.6966 21.92C29.0166 20.12 29.6966 17.72 27.6166 16.68C27.5766 16.64 27.5366 16.64 27.5366 16.64C26.3366 15.96 24.4166 16.04 23.0966 16.44C22.8166 16.52 22.4966 16.36 22.4566 16.16C22.3366 15.36 22.3366 14.96 22.4566 14.16C22.4966 13.96 22.8166 13.8 23.0966 13.88C24.4166 14.28 26.2566 14.32 27.5366 13.68C29.6966 12.64 29.0566 10.24 28.6966 8.4C28.5766 6.32 30.4966 2.92 26.8966 2.96C23.8166 2.96 22.6966 6.44 21.7766 8.12C21.6166 8.4 19.5366 7.88 18.8166 7.68C18.6966 7.64 18.6166 7.48 18.6566 7.32C19.6966 4.16 23.8566 1.24 27.2166 1.28C29.6166 1.32 31.6966 2.28 31.6966 4.84C31.7366 5.72 31.1766 6.64 31.1366 7.52C31.0566 9.08 31.7366 10.48 31.9366 11.88C32.2166 13.8 29.9766 14.84 28.2966 15.16ZM42.4528 10.88C44.5728 10.92 46.8928 12.24 48.2128 13.92C49.7728 15.88 49.2128 17.68 48.5728 19.96C47.5328 23.68 47.6928 28.88 42.5328 29C38.8128 29.08 36.9728 26.36 37.0128 23C37.0128 22.84 37.1328 22.68 37.2928 22.64C38.0128 22.4 39.9728 21.92 40.0528 22.16C40.6128 23.56 39.0928 27.48 42.5328 27.36C46.0928 27.24 45.3328 21.56 45.9728 19.2C47.8128 12.76 40.4128 12.6 36.2928 13.6C35.9728 13.64 35.7328 13.44 35.8128 13.12C35.9328 12.76 35.9728 12.6 36.0928 12.24C37.4928 8.12 36.4128 5.84 35.5328 1.76C35.4928 1.52 35.6928 1.28 35.9728 1.28C36.7728 1.28 37.1728 1.28 37.9728 1.28C38.0128 1.28 38.0128 1.28 38.0128 1.28C41.7328 1.28 45.4528 1.28 49.1728 1.28C49.4128 1.28 49.6528 1.52 49.6128 1.76C49.3328 3.84 48.3728 5.64 48.0528 7.72C48.0528 7.96 47.8128 8.2 47.5728 8.2C46.7328 8.2 46.3728 8.2 45.6928 8.2C45.2928 8.2 45.4528 7.72 45.6128 7.52C45.8128 7.32 46.6928 6.4 46.8928 5.48C47.3328 3.6 44.4528 3 43.0528 3C39.1328 2.96 39.0128 4.76 39.3728 8.16C39.4128 9.44 39.1328 10.08 38.7728 11.32C39.8128 11.08 41.0128 10.88 42.4528 10.88ZM75.7225 8.4C76.3625 10.88 78.1625 13.32 78.0825 15.44C78.0025 17.28 76.5225 19.4 75.8425 21.52C75.4425 22.76 75.4425 24.12 75.0025 25.4C74.4025 27.2 73.2425 29 71.0825 29V29.04V29V29.04V29C68.8825 28.92 67.8025 27.24 67.1625 25.4C66.6025 23.88 66.6425 22.28 66.0425 20.76C65.3225 18.92 64.1225 17.08 64.0825 15.44C63.9625 13.32 65.7625 10.88 66.4425 8.4C66.7225 7.2 66.6425 5.92 66.9625 4.76C67.5625 2.84 68.9625 1.32 71.0825 1.32C73.2025 1.32 74.6025 2.84 75.1625 4.76C75.5225 5.92 75.4425 7.24 75.7225 8.4ZM73.3225 24.52C74.0425 21.52 75.3225 17.76 75.3225 15.16C75.3225 12.56 74.0425 8.8 73.3225 5.8C73.0025 4.52 72.6025 3.12 71.0825 2.96C69.5625 3.12 69.1625 4.52 68.8425 5.8C68.0825 8.84 66.8425 12.52 66.8425 15.16C66.8425 17.8 68.0825 21.48 68.8425 24.52C69.1625 25.8 69.5625 27.2 71.0825 27.36C72.6025 27.2 73.0025 25.8 73.3225 24.52ZM93.6116 8.4C94.2516 10.88 96.0516 13.32 95.9716 15.44C95.8916 17.28 94.4116 19.4 93.7316 21.52C93.3316 22.76 93.3316 24.12 92.8916 25.4C92.2916 27.2 91.1316 29 88.9716 29V29.04V29V29.04V29C86.7716 28.92 85.6916 27.24 85.0516 25.4C84.4916 23.88 84.5316 22.28 83.9316 20.76C83.2116 18.92 82.0116 17.08 81.9716 15.44C81.8516 13.32 83.6516 10.88 84.3316 8.4C84.6116 7.2 84.5316 5.92 84.8516 4.76C85.4516 2.84 86.8516 1.32 88.9716 1.32C91.0916 1.32 92.4916 2.84 93.0516 4.76C93.4116 5.92 93.3316 7.24 93.6116 8.4ZM91.2116 24.52C91.9316 21.52 93.2116 17.76 93.2116 15.16C93.2116 12.56 91.9316 8.8 91.2116 5.8C90.8916 4.52 90.4916 3.12 88.9716 2.96C87.4516 3.12 87.0516 4.52 86.7316 5.8C85.9716 8.84 84.7316 12.52 84.7316 15.16C84.7316 17.8 85.9716 21.48 86.7316 24.52C87.0516 25.8 87.4516 27.2 88.9716 27.36C90.4916 27.2 90.8916 25.8 91.2116 24.52ZM111.501 8.4C112.141 10.88 113.941 13.32 113.861 15.44C113.781 17.28 112.301 19.4 111.621 21.52C111.221 22.76 111.221 24.12 110.781 25.4C110.181 27.2 109.021 29 106.861 29V29.04V29V29.04V29C104.661 28.92 103.581 27.24 102.941 25.4C102.381 23.88 102.421 22.28 101.821 20.76C101.101 18.92 99.9006 17.08 99.8606 15.44C99.7406 13.32 101.541 10.88 102.221 8.4C102.501 7.2 102.421 5.92 102.741 4.76C103.341 2.84 104.741 1.32 106.861 1.32C108.981 1.32 110.381 2.84 110.941 4.76C111.301 5.92 111.221 7.24 111.501 8.4ZM109.101 24.52C109.821 21.52 111.101 17.76 111.101 15.16C111.101 12.56 109.821 8.8 109.101 5.8C108.781 4.52 108.381 3.12 106.861 2.96C105.341 3.12 104.941 4.52 104.621 5.8C103.861 8.84 102.621 12.52 102.621 15.16C102.621 17.8 103.861 21.48 104.621 24.52C104.941 25.8 105.341 27.2 106.861 27.36C108.381 27.2 108.781 25.8 109.101 24.52Z" fill="white"/>
<path d="M124.02 9.42V7.74H125.76V0.799999H129.86C131.327 0.799999 132.487 1.19333 133.34 1.98C134.207 2.75333 134.64 3.78667 134.64 5.08C134.64 6.37333 134.207 7.42 133.34 8.22C132.487 9.02 131.327 9.42 129.86 9.42H127.48V11.02H131.62V12.12H127.48V15H125.76V12.12H124.02V11.02H125.76V9.42H124.02ZM127.48 7.74H129.82C130.78 7.74 131.513 7.50667 132.02 7.04C132.54 6.56 132.8 5.90667 132.8 5.08C132.8 4.26667 132.54 3.63333 132.02 3.18C131.513 2.71333 130.78 2.48 129.82 2.48H127.48V7.74Z" fill="white"/>
</svg>
